:FULLY-SPECIFIED
:DEGREES
1698
root 5.03544 16.3747 -1.8745 -92.3155 -86.0262 107.531
lowerback -5.31393 -1.01416 -2.50854
upperback -3.80189 -1.35376 -1.03145
thorax -0.901882 -0.686175 0.287349
lowerneck -14.8816 -0.895806 1.67588
upperneck 20.8248 -1.79349 -0.381689
head 8.96462 -0.834963 -0.638257
rclavicle -7.15625e-015 1.61513e-014
rhumerus -37.131 -4.89247 -82.8748
rradius 34.4266
rwrist 16.1841
rhand -25.2978 -5.12101
rfingers 7.12502
rthumb 1.22392 -35.0972
lclavicle -7.15625e-015 1.61513e-014
lhumerus -33.7173 -10.7735 86.9081
lradius 34.8665
lwrist -8.94182
lhand -36.4031 -1.28222
lfingers 7.12502
lthumb -9.4988 28.4837
rfemur -42.4465 -1.08245 16.393
rtibia 68.4255
rfoot -11.8389 -8.24223
rtoes -14.7706
lfemur -24.8633 -13.6173 -29.2052
ltibia 23.9753
lfoot -12.4088 19.4586
ltoes -5.42174
1699
root 5.04986 16.3659 -1.86226 -94.2439 -86.0499 109.536
lowerback -5.32349 -1.04322 -2.51878
upperback -3.82362 -1.39239 -0.9635
thorax -0.916191 -0.704415 0.361096
lowerneck -14.9272 -0.87546 1.73975
upperneck 20.7984 -1.77751 -0.394001
head 8.96346 -0.823368 -0.651266
rclavicle -3.45885e-014 -4.32357e-014
rhumerus -37.3954 -5.22257 -82.6018
rradius 34.0239
rwrist 16.4412
rhand -25.2114 -5.02104
rfingers 7.12502
rthumb 1.30741 -34.9968
lclavicle -3.45885e-014 -4.32357e-014
lhumerus -33.0841 -10.9972 86.8426
lradius 34.9966
lwrist -8.69677
lhand -36.3997 -1.2629
lfingers 7.12502
lthumb -9.49548 28.5032
rfemur -43.4444 -0.682056 16.4207
rtibia 67.1778
rfoot -12.075 -8.40513
rtoes -15.4088
lfemur -24.5934 -13.9384 -29.224
ltibia 24.3039
lfoot -12.9677 20.0764
ltoes -5.37954
1700
root 5.06277 16.3521 -1.85372 -96.4543 -86.1523 111.774
lowerback -5.28602 -1.08109 -2.50786
upperback -3.82037 -1.44228 -0.820467
thorax -0.92894 -0.72708 0.500218
lowerneck -14.9851 -0.840473 1.71577
upperneck 20.7339 -1.72306 -0.3817
head 8.95295 -0.797577 -0.636344
rclavicle 7.15625e-015 -6.36111e-015
rhumerus -37.6254 -5.42087 -82.2916
rradius 33.6285
rwrist 16.7326
rhand -24.9757 -5.07557
rfingers 7.12502
rthumb 1.535 -35.0498
lclavicle 7.15625e-015 -6.36111e-015
lhumerus -32.4568 -11.0168 86.7914
lradius 35.21
lwrist -8.53868
lhand -36.42 -1.23275
lfingers 7.12502
lthumb -9.5151 28.5324
rfemur -44.2802 -0.126658 16.5396
rtibia 65.6764
rfoot -12.4925 -8.77368
rtoes -14.8093
lfemur -24.2543 -14.1518 -29.1742
ltibia 24.5954
lfoot -13.4374 20.5482
ltoes -5.68265
1701
root 5.07399 16.3468 -1.84309 -98.1449 -86.1914 113.556
lowerback -5.30174 -1.13382 -2.5156
upperback -3.85794 -1.5129 -0.716541
thorax -0.954113 -0.760892 0.608114
lowerneck -14.9882 -0.792105 1.68552
upperneck 20.6816 -1.66141 -0.317211
head 8.93723 -0.763974 -0.601549
rclavicle -1.11319e-014 2.03754e-014
rhumerus -37.8829 -5.51986 -82.0169
rradius 33.2685
rwrist 16.9524
rhand -24.8139 -5.06815
rfingers 7.12502
rthumb 1.69128 -35.0412
lclavicle -1.11319e-014 2.03754e-014
lhumerus -31.9441 -11.2299 86.7895
lradius 35.4461
lwrist -8.25712
lhand -36.4767 -1.18939
lfingers 7.12502
lthumb -9.56976 28.5733
rfemur -45.0327 0.322605 16.5786
rtibia 63.9361
rfoot -12.8018 -9.15412
rtoes -14.8761
lfemur -23.9327 -14.4234 -29.188
ltibia 24.8484
lfoot -13.9903 21.0532
ltoes -5.64041
1702
root 5.0868 16.3443 -1.83314 -100.628 -86.2646 116.146
lowerback -5.35 -1.18471 -2.4861
upperback -3.86563 -1.57986 -0.600669
thorax -0.930734 -0.793766 0.706444
lowerneck -15.0448 -0.741159 1.71234
upperneck 20.5832 -1.59865 -0.293721
head 8.91463 -0.728991 -0.589981
rclavicle -5.56597e-015 2.78299e-015
rhumerus -38.0339 -5.71447 -81.761
rradius 32.884
rwrist 17.2429
rhand -24.6823 -5.1471
rfingers 7.12502
rthumb 1.81845 -35.1191
lclavicle -5.56597e-015 2.78299e-015
lhumerus -31.3938 -11.3739 86.7191
lradius 35.7325
lwrist -7.92925
lhand -36.5672 -1.21667
lfingers 7.12502
lthumb -9.65707 28.542
rfemur -45.715 0.760366 16.6872
rtibia 61.9207
rfoot -12.923 -9.4848
rtoes -14.9083
lfemur -23.5915 -14.7216 -29.1417
ltibia 24.991
lfoot -14.3562 21.6529
ltoes -6.1679
1703
root 5.09893 16.3408 -1.82632 -102.451 -86.3431 118.102
lowerback -5.41734 -1.21057 -2.44768
upperback -3.89445 -1.61488 -0.510938
thorax -0.92035 -0.811311 0.774235
lowerneck -15.0616 -0.745967 1.7339
upperneck 20.4824 -1.61042 -0.276524
head 8.88302 -0.730446 -0.58831
rclavicle -2.38542e-015 -7.15625e-015
rhumerus -38.2266 -6.0372 -81.4114
rradius 32.4758
rwrist 17.8692
rhand -24.5326 -5.13653
rfingers 7.12502
rthumb 1.963 -35.1072
lclavicle -2.38542e-015 -7.15625e-015
lhumerus -30.9256 -11.5699 86.6556
lradius 36.1242
lwrist -7.6954
lhand -36.4338 -1.32651
lfingers 7.12502
lthumb -9.52833 28.4381
rfemur -46.2371 1.28396 16.7284
rtibia 59.63
rfoot -13.016 -10.0985
rtoes -14.5867
lfemur -23.1745 -14.9131 -29.1047
ltibia 24.9437
lfoot -14.7186 22.0337
ltoes -6.48141
1704
root 5.10783 16.3454 -1.82117 -103.256 -86.3921 119.017
lowerback -5.46254 -1.27183 -2.48941
upperback -3.93206 -1.69508 -0.420478
thorax -0.927848 -0.849842 0.886057
lowerneck -15.0223 -0.71635 1.76855
upperneck 20.3893 -1.5808 -0.247701
head 8.84433 -0.710918 -0.579701
rclavicle 7.95139e-016 -1.2921e-014
rhumerus -38.4909 -6.34582 -81.0652
rradius 32.149
rwrist 18.6037
rhand -24.543 -5.21634
rfingers 7.12502
rthumb 1.95292 -35.1871
lclavicle 7.95139e-016 -1.2921e-014
lhumerus -30.5284 -11.7498 86.5756
lradius 36.5231
lwrist -7.88119
lhand -36.4641 -1.33077
lfingers 7.12502
lthumb -9.55761 28.4325
rfemur -46.6233 1.71667 16.7321
rtibia 57.1008
rfoot -12.8586 -10.6059
rtoes -13.9951
lfemur -22.6139 -15.2102 -29.1041
ltibia 24.6933
lfoot -14.9287 22.4457
ltoes -6.65642
